<mxfile host="app.diagrams.net" modified="2021-05-03T06:36:02.632Z" agent="5.0 (Windows NT 10.0; Win64; x64) AppleWebKit/537.36 (KHTML, like Gecko) Chrome/88.0.4324.182 Safari/537.36" etag="2dCssZDQXGhSyfktmQvL" version="14.6.9" type="github">
  <diagram id="sAjSLfs0zAGTApY3lC0H" name="第 1 页">
    <mxGraphModel dx="782" dy="437" grid="1" gridSize="10" guides="1" tooltips="1" connect="1" arrows="1" fold="1" page="1" pageScale="1" pageWidth="827" pageHeight="1169" math="0" shadow="0">
      <root>
        <mxCell id="0" />
        <mxCell id="1" parent="0" />
        <mxCell id="LDFEKcF4dEjjbmsaXeL3-10" style="edgeStyle=orthogonalEdgeStyle;rounded=0;orthogonalLoop=1;jettySize=auto;html=1;exitX=0.5;exitY=1;exitDx=0;exitDy=0;exitPerimeter=0;" edge="1" parent="1" source="LDFEKcF4dEjjbmsaXeL3-1" target="LDFEKcF4dEjjbmsaXeL3-2">
          <mxGeometry relative="1" as="geometry" />
        </mxCell>
        <mxCell id="LDFEKcF4dEjjbmsaXeL3-1" value="开始" style="strokeWidth=1;html=1;shape=mxgraph.flowchart.terminator;whiteSpace=wrap;rounded=1;glass=0;fontSize=15;" vertex="1" parent="1">
          <mxGeometry x="310" y="40" width="90" height="50" as="geometry" />
        </mxCell>
        <mxCell id="LDFEKcF4dEjjbmsaXeL3-11" style="edgeStyle=orthogonalEdgeStyle;rounded=0;orthogonalLoop=1;jettySize=auto;html=1;exitX=0.5;exitY=1;exitDx=0;exitDy=0;entryX=0.5;entryY=0;entryDx=0;entryDy=0;" edge="1" parent="1" source="LDFEKcF4dEjjbmsaXeL3-2" target="LDFEKcF4dEjjbmsaXeL3-3">
          <mxGeometry relative="1" as="geometry" />
        </mxCell>
        <mxCell id="LDFEKcF4dEjjbmsaXeL3-12" style="edgeStyle=orthogonalEdgeStyle;rounded=0;orthogonalLoop=1;jettySize=auto;html=1;exitX=0.5;exitY=1;exitDx=0;exitDy=0;" edge="1" parent="1">
          <mxGeometry relative="1" as="geometry">
            <mxPoint x="355" y="165" as="sourcePoint" />
            <mxPoint x="513" y="245" as="targetPoint" />
            <Array as="points">
              <mxPoint x="355" y="195" />
              <mxPoint x="513" y="195" />
            </Array>
          </mxGeometry>
        </mxCell>
        <mxCell id="LDFEKcF4dEjjbmsaXeL3-2" value="&lt;font style=&quot;font-size: 15px&quot;&gt;进入系统主页面&lt;/font&gt;" style="rounded=0;whiteSpace=wrap;html=1;" vertex="1" parent="1">
          <mxGeometry x="295" y="130" width="120" height="40" as="geometry" />
        </mxCell>
        <mxCell id="LDFEKcF4dEjjbmsaXeL3-13" style="edgeStyle=orthogonalEdgeStyle;rounded=0;orthogonalLoop=1;jettySize=auto;html=1;exitX=0.5;exitY=1;exitDx=0;exitDy=0;" edge="1" parent="1" source="LDFEKcF4dEjjbmsaXeL3-3" target="LDFEKcF4dEjjbmsaXeL3-4">
          <mxGeometry relative="1" as="geometry" />
        </mxCell>
        <mxCell id="LDFEKcF4dEjjbmsaXeL3-3" value="&lt;span style=&quot;font-size: 15px&quot;&gt;点击&lt;br&gt;“CD WORKFLOW”&lt;/span&gt;" style="rounded=0;whiteSpace=wrap;html=1;" vertex="1" parent="1">
          <mxGeometry x="120" y="220" width="146" height="40" as="geometry" />
        </mxCell>
        <mxCell id="LDFEKcF4dEjjbmsaXeL3-15" style="edgeStyle=orthogonalEdgeStyle;rounded=0;orthogonalLoop=1;jettySize=auto;html=1;exitX=0.5;exitY=1;exitDx=0;exitDy=0;" edge="1" parent="1" source="LDFEKcF4dEjjbmsaXeL3-4" target="LDFEKcF4dEjjbmsaXeL3-7">
          <mxGeometry relative="1" as="geometry" />
        </mxCell>
        <mxCell id="LDFEKcF4dEjjbmsaXeL3-4" value="&lt;span style=&quot;font-size: 15px&quot;&gt;点击&lt;br&gt;“CHOOSE CI PIPELINE”&lt;/span&gt;" style="rounded=0;whiteSpace=wrap;html=1;" vertex="1" parent="1">
          <mxGeometry x="83" y="290" width="220" height="40" as="geometry" />
        </mxCell>
        <mxCell id="LDFEKcF4dEjjbmsaXeL3-17" style="edgeStyle=orthogonalEdgeStyle;rounded=0;orthogonalLoop=1;jettySize=auto;html=1;exitX=0.5;exitY=1;exitDx=0;exitDy=0;" edge="1" parent="1" target="LDFEKcF4dEjjbmsaXeL3-7">
          <mxGeometry relative="1" as="geometry">
            <mxPoint x="513" y="285" as="sourcePoint" />
            <mxPoint x="355" y="375" as="targetPoint" />
            <Array as="points">
              <mxPoint x="513" y="355" />
              <mxPoint x="355" y="355" />
            </Array>
          </mxGeometry>
        </mxCell>
        <mxCell id="LDFEKcF4dEjjbmsaXeL3-5" value="&lt;span style=&quot;font-size: 15px&quot;&gt;点击&lt;br&gt;“CI WORKFLOW”&lt;/span&gt;" style="rounded=0;whiteSpace=wrap;html=1;" vertex="1" parent="1">
          <mxGeometry x="440" y="250" width="146" height="40" as="geometry" />
        </mxCell>
        <mxCell id="LDFEKcF4dEjjbmsaXeL3-16" style="edgeStyle=orthogonalEdgeStyle;rounded=0;orthogonalLoop=1;jettySize=auto;html=1;exitX=0.5;exitY=1;exitDx=0;exitDy=0;" edge="1" parent="1" source="LDFEKcF4dEjjbmsaXeL3-7" target="LDFEKcF4dEjjbmsaXeL3-9">
          <mxGeometry relative="1" as="geometry" />
        </mxCell>
        <mxCell id="LDFEKcF4dEjjbmsaXeL3-7" value="&lt;span style=&quot;font-size: 15px&quot;&gt;选择模型管道&lt;br&gt;&lt;/span&gt;" style="rounded=0;whiteSpace=wrap;html=1;" vertex="1" parent="1">
          <mxGeometry x="285" y="380" width="140" height="40" as="geometry" />
        </mxCell>
        <mxCell id="LDFEKcF4dEjjbmsaXeL3-24" style="edgeStyle=orthogonalEdgeStyle;rounded=0;orthogonalLoop=1;jettySize=auto;html=1;exitX=0.5;exitY=1;exitDx=0;exitDy=0;" edge="1" parent="1" source="LDFEKcF4dEjjbmsaXeL3-9" target="LDFEKcF4dEjjbmsaXeL3-18">
          <mxGeometry relative="1" as="geometry" />
        </mxCell>
        <mxCell id="LDFEKcF4dEjjbmsaXeL3-9" value="&lt;span style=&quot;font-size: 15px&quot;&gt;点击“RELEASE CD PIPELINE”&lt;br&gt;&lt;/span&gt;" style="rounded=0;whiteSpace=wrap;html=1;" vertex="1" parent="1">
          <mxGeometry x="265" y="454" width="180" height="40" as="geometry" />
        </mxCell>
        <mxCell id="LDFEKcF4dEjjbmsaXeL3-25" style="edgeStyle=orthogonalEdgeStyle;rounded=0;orthogonalLoop=1;jettySize=auto;html=1;exitX=0.5;exitY=1;exitDx=0;exitDy=0;" edge="1" parent="1" source="LDFEKcF4dEjjbmsaXeL3-18" target="LDFEKcF4dEjjbmsaXeL3-19">
          <mxGeometry relative="1" as="geometry" />
        </mxCell>
        <mxCell id="LDFEKcF4dEjjbmsaXeL3-18" value="&lt;span style=&quot;font-size: 15px&quot;&gt;确认工作流信息&lt;br&gt;&lt;/span&gt;" style="rounded=0;whiteSpace=wrap;html=1;" vertex="1" parent="1">
          <mxGeometry x="265" y="530" width="180" height="40" as="geometry" />
        </mxCell>
        <mxCell id="LDFEKcF4dEjjbmsaXeL3-26" style="edgeStyle=orthogonalEdgeStyle;rounded=0;orthogonalLoop=1;jettySize=auto;html=1;exitX=1;exitY=0.5;exitDx=0;exitDy=0;entryX=0;entryY=0.5;entryDx=0;entryDy=0;" edge="1" parent="1" source="LDFEKcF4dEjjbmsaXeL3-19" target="LDFEKcF4dEjjbmsaXeL3-20">
          <mxGeometry relative="1" as="geometry" />
        </mxCell>
        <mxCell id="LDFEKcF4dEjjbmsaXeL3-19" value="&lt;span style=&quot;font-size: 15px&quot;&gt;设置管道任务执行周期并在pull request下添加评论&lt;br&gt;&lt;/span&gt;" style="rounded=0;whiteSpace=wrap;html=1;" vertex="1" parent="1">
          <mxGeometry x="265" y="601" width="180" height="40" as="geometry" />
        </mxCell>
        <mxCell id="LDFEKcF4dEjjbmsaXeL3-27" style="edgeStyle=orthogonalEdgeStyle;rounded=0;orthogonalLoop=1;jettySize=auto;html=1;" edge="1" parent="1" source="LDFEKcF4dEjjbmsaXeL3-20" target="LDFEKcF4dEjjbmsaXeL3-21">
          <mxGeometry relative="1" as="geometry">
            <mxPoint x="676" y="409" as="sourcePoint" />
            <mxPoint x="676" y="439" as="targetPoint" />
          </mxGeometry>
        </mxCell>
        <mxCell id="LDFEKcF4dEjjbmsaXeL3-20" value="&lt;span style=&quot;font-size: 15px&quot;&gt;Jenkins感知评论&lt;br&gt;&lt;/span&gt;" style="rounded=0;whiteSpace=wrap;html=1;" vertex="1" parent="1">
          <mxGeometry x="586" y="350" width="180" height="40" as="geometry" />
        </mxCell>
        <mxCell id="LDFEKcF4dEjjbmsaXeL3-28" style="edgeStyle=orthogonalEdgeStyle;rounded=0;orthogonalLoop=1;jettySize=auto;html=1;exitX=0.5;exitY=1;exitDx=0;exitDy=0;entryX=0.5;entryY=0;entryDx=0;entryDy=0;" edge="1" parent="1" target="LDFEKcF4dEjjbmsaXeL3-22">
          <mxGeometry relative="1" as="geometry">
            <mxPoint x="676" y="479" as="sourcePoint" />
          </mxGeometry>
        </mxCell>
        <mxCell id="LDFEKcF4dEjjbmsaXeL3-32" value="" style="edgeStyle=orthogonalEdgeStyle;rounded=0;orthogonalLoop=1;jettySize=auto;html=1;startArrow=none;" edge="1" parent="1" source="LDFEKcF4dEjjbmsaXeL3-22" target="LDFEKcF4dEjjbmsaXeL3-23">
          <mxGeometry relative="1" as="geometry" />
        </mxCell>
        <mxCell id="LDFEKcF4dEjjbmsaXeL3-21" value="&lt;span style=&quot;font-size: 15px&quot;&gt;触发Airflow&lt;br&gt;&lt;/span&gt;" style="rounded=0;whiteSpace=wrap;html=1;" vertex="1" parent="1">
          <mxGeometry x="586" y="420" width="180" height="40" as="geometry" />
        </mxCell>
        <mxCell id="LDFEKcF4dEjjbmsaXeL3-29" style="edgeStyle=orthogonalEdgeStyle;rounded=0;orthogonalLoop=1;jettySize=auto;html=1;exitX=0.5;exitY=1;exitDx=0;exitDy=0;entryX=0.5;entryY=0;entryDx=0;entryDy=0;" edge="1" parent="1" source="LDFEKcF4dEjjbmsaXeL3-22" target="LDFEKcF4dEjjbmsaXeL3-23">
          <mxGeometry relative="1" as="geometry" />
        </mxCell>
        <mxCell id="LDFEKcF4dEjjbmsaXeL3-31" style="edgeStyle=orthogonalEdgeStyle;rounded=0;orthogonalLoop=1;jettySize=auto;html=1;exitX=0.5;exitY=1;exitDx=0;exitDy=0;" edge="1" parent="1" source="LDFEKcF4dEjjbmsaXeL3-23" target="LDFEKcF4dEjjbmsaXeL3-30">
          <mxGeometry relative="1" as="geometry" />
        </mxCell>
        <mxCell id="LDFEKcF4dEjjbmsaXeL3-23" value="&lt;span style=&quot;font-size: 15px&quot;&gt;更新管道交付任务查询页面信息&lt;br&gt;&lt;/span&gt;" style="rounded=0;whiteSpace=wrap;html=1;" vertex="1" parent="1">
          <mxGeometry x="606" y="565" width="140" height="40" as="geometry" />
        </mxCell>
        <mxCell id="LDFEKcF4dEjjbmsaXeL3-30" value="结束" style="strokeWidth=1;html=1;shape=mxgraph.flowchart.terminator;whiteSpace=wrap;rounded=1;glass=0;fontSize=15;" vertex="1" parent="1">
          <mxGeometry x="631" y="630" width="90" height="50" as="geometry" />
        </mxCell>
        <mxCell id="LDFEKcF4dEjjbmsaXeL3-22" value="&lt;span style=&quot;font-size: 15px&quot;&gt;生成并定期自动触发管道交付任务的DAG&lt;br&gt;&lt;/span&gt;" style="rounded=0;whiteSpace=wrap;html=1;" vertex="1" parent="1">
          <mxGeometry x="596" y="490" width="160" height="40" as="geometry" />
        </mxCell>
        <mxCell id="LDFEKcF4dEjjbmsaXeL3-35" value="" style="edgeStyle=orthogonalEdgeStyle;rounded=0;orthogonalLoop=1;jettySize=auto;html=1;endArrow=none;" edge="1" parent="1" source="LDFEKcF4dEjjbmsaXeL3-21" target="LDFEKcF4dEjjbmsaXeL3-22">
          <mxGeometry relative="1" as="geometry">
            <mxPoint x="676" y="460" as="sourcePoint" />
            <mxPoint x="676" y="584" as="targetPoint" />
          </mxGeometry>
        </mxCell>
      </root>
    </mxGraphModel>
  </diagram>
</mxfile>
